<mxfile host="65bd71144e">
    <diagram id="RPtw3A49BTOwBg8Jp9t4" name="Page-1">
        <mxGraphModel dx="2165" dy="1309" grid="1" gridSize="10" guides="1" tooltips="1" connect="1" arrows="1" fold="1" page="1" pageScale="1" pageWidth="2200" pageHeight="2000" math="0" shadow="0">
            <root>
                <mxCell id="0"/>
                <mxCell id="1" parent="0"/>
                <mxCell id="233" value="" style="rounded=0;whiteSpace=wrap;html=1;movable=0;resizable=0;rotatable=0;deletable=0;editable=0;connectable=0;" vertex="1" parent="1">
                    <mxGeometry x="100" y="110" width="930" height="1430" as="geometry"/>
                </mxCell>
                <mxCell id="231" value="" style="rounded=0;whiteSpace=wrap;html=1;fillColor=#e1d5e7;strokeColor=#9673a6;movable=0;resizable=0;rotatable=0;deletable=0;editable=0;connectable=0;" vertex="1" parent="1">
                    <mxGeometry x="130" y="280" width="870" height="100" as="geometry"/>
                </mxCell>
                <mxCell id="45" value="" style="rounded=0;whiteSpace=wrap;html=1;shadow=0;glass=0;sketch=0;fillColor=#d5e8d4;strokeColor=#82b366;" parent="1" vertex="1">
                    <mxGeometry x="700" y="1269" width="90" height="100" as="geometry"/>
                </mxCell>
                <mxCell id="13" value="" style="rounded=0;whiteSpace=wrap;html=1;fillColor=#ffe6cc;strokeColor=#d79b00;glass=0;shadow=0;movable=0;resizable=0;rotatable=0;deletable=0;editable=0;connectable=0;" parent="1" vertex="1">
                    <mxGeometry x="130" y="808" width="870" height="110" as="geometry"/>
                </mxCell>
                <mxCell id="11" value="" style="rounded=0;whiteSpace=wrap;html=1;fillColor=#fff2cc;strokeColor=#d6b656;glass=0;shadow=0;movable=0;resizable=0;rotatable=0;deletable=0;editable=0;connectable=0;" parent="1" vertex="1">
                    <mxGeometry x="130" y="430" width="870" height="270" as="geometry"/>
                </mxCell>
                <mxCell id="2" value="Get spotify data" style="rounded=1;whiteSpace=wrap;html=1;fillColor=#d5e8d4;strokeColor=#82b366;" parent="1" vertex="1">
                    <mxGeometry x="320" y="140" width="120" height="40" as="geometry"/>
                </mxCell>
                <mxCell id="3" value="" style="endArrow=classic;html=1;exitX=0.5;exitY=1;exitDx=0;exitDy=0;entryX=0.5;entryY=0;entryDx=0;entryDy=0;" parent="1" source="2" target="4" edge="1">
                    <mxGeometry width="50" height="50" relative="1" as="geometry">
                        <mxPoint x="440" y="330" as="sourcePoint"/>
                        <mxPoint x="380" y="230" as="targetPoint"/>
                    </mxGeometry>
                </mxCell>
                <mxCell id="8" value="" style="edgeStyle=none;html=1;" parent="1" source="4" target="7" edge="1">
                    <mxGeometry relative="1" as="geometry"/>
                </mxCell>
                <mxCell id="43" value="" style="edgeStyle=none;html=1;" parent="1" source="4" target="7" edge="1">
                    <mxGeometry relative="1" as="geometry"/>
                </mxCell>
                <mxCell id="4" value="&lt;b&gt;Search&lt;br&gt;&lt;/b&gt;Cleaned track name&lt;br&gt;Artist name" style="rounded=1;whiteSpace=wrap;html=1;" parent="1" vertex="1">
                    <mxGeometry x="320" y="210" width="120" height="60" as="geometry"/>
                </mxCell>
                <mxCell id="6" value="Music Enjoyer" style="shape=umlActor;verticalLabelPosition=bottom;verticalAlign=top;html=1;outlineConnect=0;" parent="1" vertex="1">
                    <mxGeometry x="730" y="1279" width="30" height="60" as="geometry"/>
                </mxCell>
                <mxCell id="10" value="" style="edgeStyle=none;html=1;" parent="1" source="7" target="9" edge="1">
                    <mxGeometry relative="1" as="geometry"/>
                </mxCell>
                <mxCell id="7" value="&lt;b&gt;API Call&lt;/b&gt;&lt;br&gt;Song search&lt;br&gt;return song list" style="rounded=1;whiteSpace=wrap;html=1;fillColor=#dae8fc;strokeColor=#6c8ebf;" parent="1" vertex="1">
                    <mxGeometry x="320" y="300" width="120" height="60" as="geometry"/>
                </mxCell>
                <mxCell id="9" value="Match&lt;br&gt;Title AND Artist" style="rhombus;whiteSpace=wrap;html=1;" parent="1" vertex="1">
                    <mxGeometry x="330" y="435" width="100" height="100" as="geometry"/>
                </mxCell>
                <mxCell id="12" value="&lt;b&gt;TIER 1&lt;/b&gt;&lt;br&gt;Achievable with no additional API calls" style="rounded=0;whiteSpace=wrap;html=1;shadow=0;glass=0;sketch=0;" parent="1" vertex="1">
                    <mxGeometry x="150" y="445" width="110" height="80" as="geometry"/>
                </mxCell>
                <mxCell id="14" value="&lt;b&gt;TIER 2&lt;/b&gt;&lt;br&gt;Achievable with additional API calls" style="rounded=0;whiteSpace=wrap;html=1;shadow=0;glass=0;sketch=0;" parent="1" vertex="1">
                    <mxGeometry x="150" y="823" width="110" height="80" as="geometry"/>
                </mxCell>
                <mxCell id="37" value="" style="edgeStyle=none;html=1;" parent="1" source="15" target="16" edge="1">
                    <mxGeometry relative="1" as="geometry"/>
                </mxCell>
                <mxCell id="15" value="Match accepted!" style="rounded=1;whiteSpace=wrap;html=1;shadow=0;glass=0;sketch=0;" parent="1" vertex="1">
                    <mxGeometry x="320" y="948" width="120" height="60" as="geometry"/>
                </mxCell>
                <mxCell id="38" value="" style="edgeStyle=none;html=1;" parent="1" source="16" target="36" edge="1">
                    <mxGeometry relative="1" as="geometry"/>
                </mxCell>
                <mxCell id="16" value="&lt;span&gt;&lt;b&gt;API Call&lt;/b&gt;&lt;br&gt;&lt;/span&gt;Retrieve lyric data" style="rounded=1;whiteSpace=wrap;html=1;shadow=0;glass=0;sketch=0;fontStyle=0;fillColor=#dae8fc;strokeColor=#6c8ebf;" parent="1" vertex="1">
                    <mxGeometry x="320" y="1059" width="120" height="60" as="geometry"/>
                </mxCell>
                <mxCell id="78" value="" style="edgeStyle=none;html=1;" parent="1" source="21" target="52" edge="1">
                    <mxGeometry relative="1" as="geometry"/>
                </mxCell>
                <mxCell id="21" value="&lt;b&gt;API Call&lt;/b&gt;&lt;br&gt;Retrieve lyric data" style="rounded=1;whiteSpace=wrap;html=1;fillColor=#dae8fc;strokeColor=#6c8ebf;" parent="1" vertex="1">
                    <mxGeometry x="320" y="1289" width="120" height="60" as="geometry"/>
                </mxCell>
                <mxCell id="22" value="" style="endArrow=classic;html=1;exitX=0.5;exitY=1;exitDx=0;exitDy=0;entryX=0.5;entryY=0;entryDx=0;entryDy=0;" parent="1" source="9" target="15" edge="1">
                    <mxGeometry relative="1" as="geometry">
                        <mxPoint x="510" y="780" as="sourcePoint"/>
                        <mxPoint x="610" y="780" as="targetPoint"/>
                    </mxGeometry>
                </mxCell>
                <mxCell id="24" value="" style="endArrow=classic;html=1;exitX=1;exitY=0.5;exitDx=0;exitDy=0;entryX=0;entryY=0.5;entryDx=0;entryDy=0;" parent="1" source="9" target="26" edge="1">
                    <mxGeometry relative="1" as="geometry">
                        <mxPoint x="520" y="790" as="sourcePoint"/>
                        <mxPoint x="800" y="520" as="targetPoint"/>
                    </mxGeometry>
                </mxCell>
                <mxCell id="25" value="Miss" style="edgeLabel;resizable=0;html=1;align=center;verticalAlign=middle;rounded=0;shadow=0;glass=0;sketch=0;fontSize=14;" parent="24" connectable="0" vertex="1">
                    <mxGeometry relative="1" as="geometry">
                        <mxPoint x="-5" as="offset"/>
                    </mxGeometry>
                </mxCell>
                <mxCell id="236" value="" style="edgeStyle=none;html=1;" edge="1" parent="1" source="26" target="235">
                    <mxGeometry relative="1" as="geometry"/>
                </mxCell>
                <mxCell id="26" value="Match&lt;br&gt;Unique Title" style="rhombus;whiteSpace=wrap;html=1;" parent="1" vertex="1">
                    <mxGeometry x="470" y="435" width="100" height="100" as="geometry"/>
                </mxCell>
                <mxCell id="294" style="edgeStyle=none;html=1;exitX=0.5;exitY=1;exitDx=0;exitDy=0;entryX=0.5;entryY=0;entryDx=0;entryDy=0;" edge="1" parent="1" source="33" target="45">
                    <mxGeometry relative="1" as="geometry"/>
                </mxCell>
                <mxCell id="33" value="&lt;b&gt;No match found&lt;/b&gt;&lt;br&gt;Show user manual search results" style="rounded=1;whiteSpace=wrap;html=1;" parent="1" vertex="1">
                    <mxGeometry x="685" y="1030" width="120" height="60" as="geometry"/>
                </mxCell>
                <mxCell id="36" value="Translation Requested" style="rhombus;whiteSpace=wrap;html=1;" parent="1" vertex="1">
                    <mxGeometry x="330" y="1149" width="100" height="100" as="geometry"/>
                </mxCell>
                <mxCell id="47" value="Match&lt;br&gt;Spotify URI" style="rhombus;whiteSpace=wrap;html=1;" parent="1" vertex="1">
                    <mxGeometry x="610" y="813" width="100" height="100" as="geometry"/>
                </mxCell>
                <mxCell id="85" value="" style="edgeStyle=none;html=1;" parent="1" source="52" target="53" edge="1">
                    <mxGeometry relative="1" as="geometry"/>
                </mxCell>
                <mxCell id="295" value="" style="edgeStyle=none;html=1;" edge="1" parent="1" source="52" target="45">
                    <mxGeometry relative="1" as="geometry"/>
                </mxCell>
                <mxCell id="52" value="&lt;b&gt;Display Lyrics&lt;br&gt;&lt;/b&gt;" style="rounded=1;whiteSpace=wrap;html=1;" parent="1" vertex="1">
                    <mxGeometry x="480" y="1299" width="120" height="40" as="geometry"/>
                </mxCell>
                <mxCell id="86" value="" style="edgeStyle=none;html=1;" parent="1" source="53" target="84" edge="1">
                    <mxGeometry relative="1" as="geometry"/>
                </mxCell>
                <mxCell id="53" value="&lt;b&gt;API Call&lt;/b&gt;&lt;br&gt;Retrieve Annotations" style="rounded=1;whiteSpace=wrap;html=1;fillColor=#dae8fc;strokeColor=#6c8ebf;" parent="1" vertex="1">
                    <mxGeometry x="480" y="1374" width="120" height="50" as="geometry"/>
                </mxCell>
                <mxCell id="80" value="" style="endArrow=classic;html=1;exitX=0.5;exitY=1;exitDx=0;exitDy=0;entryX=0.5;entryY=0;entryDx=0;entryDy=0;" parent="1" source="36" target="21" edge="1">
                    <mxGeometry relative="1" as="geometry">
                        <mxPoint x="430" y="1244" as="sourcePoint"/>
                        <mxPoint x="530" y="1244" as="targetPoint"/>
                    </mxGeometry>
                </mxCell>
                <mxCell id="81" value="Yes" style="edgeLabel;resizable=0;html=1;align=center;verticalAlign=middle;rounded=0;shadow=0;glass=0;sketch=0;fontSize=14;" parent="80" connectable="0" vertex="1">
                    <mxGeometry relative="1" as="geometry">
                        <mxPoint y="-5" as="offset"/>
                    </mxGeometry>
                </mxCell>
                <mxCell id="82" value="" style="endArrow=classic;html=1;exitX=1;exitY=0.5;exitDx=0;exitDy=0;entryX=0.5;entryY=0;entryDx=0;entryDy=0;" parent="1" source="36" target="52" edge="1">
                    <mxGeometry relative="1" as="geometry">
                        <mxPoint x="440" y="1198.83" as="sourcePoint"/>
                        <mxPoint x="540" y="1198.83" as="targetPoint"/>
                        <Array as="points">
                            <mxPoint x="540" y="1199"/>
                        </Array>
                    </mxGeometry>
                </mxCell>
                <mxCell id="83" value="No" style="edgeLabel;resizable=0;html=1;align=center;verticalAlign=middle;rounded=0;shadow=0;glass=0;sketch=0;fontSize=14;" parent="82" connectable="0" vertex="1">
                    <mxGeometry relative="1" as="geometry">
                        <mxPoint x="-95" as="offset"/>
                    </mxGeometry>
                </mxCell>
                <mxCell id="230" style="edgeStyle=none;html=1;exitX=1;exitY=0.5;exitDx=0;exitDy=0;entryX=0.5;entryY=1;entryDx=0;entryDy=0;" edge="1" parent="1" source="84" target="45">
                    <mxGeometry relative="1" as="geometry">
                        <Array as="points">
                            <mxPoint x="745" y="1484"/>
                        </Array>
                    </mxGeometry>
                </mxCell>
                <mxCell id="84" value="&lt;b&gt;Display Annotations&lt;br&gt;&lt;/b&gt;" style="rounded=1;whiteSpace=wrap;html=1;" parent="1" vertex="1">
                    <mxGeometry x="480" y="1464" width="120" height="40" as="geometry"/>
                </mxCell>
                <mxCell id="283" value="" style="edgeStyle=none;html=1;" edge="1" parent="1" source="92" target="47">
                    <mxGeometry relative="1" as="geometry"/>
                </mxCell>
                <mxCell id="92" value="&lt;b&gt;API Call&lt;/b&gt;&lt;br&gt;Retrieve song details" style="rounded=1;whiteSpace=wrap;html=1;fillColor=#dae8fc;strokeColor=#6c8ebf;" parent="1" vertex="1">
                    <mxGeometry x="600" y="726" width="120" height="60" as="geometry"/>
                </mxCell>
                <mxCell id="126" value="Miss" style="edgeLabel;resizable=0;html=1;align=center;verticalAlign=middle;rounded=0;shadow=0;glass=0;sketch=0;fontSize=14;" connectable="0" vertex="1" parent="1">
                    <mxGeometry x="584.9966666666668" y="485" as="geometry"/>
                </mxCell>
                <mxCell id="161" value="" style="endArrow=classic;html=1;exitX=0.5;exitY=1;exitDx=0;exitDy=0;entryX=1;entryY=0.5;entryDx=0;entryDy=0;" edge="1" parent="1" source="47" target="15">
                    <mxGeometry relative="1" as="geometry">
                        <mxPoint x="570" y="948" as="sourcePoint"/>
                        <mxPoint x="660" y="978" as="targetPoint"/>
                        <Array as="points">
                            <mxPoint x="660" y="980"/>
                        </Array>
                    </mxGeometry>
                </mxCell>
                <mxCell id="163" value="Hit" style="edgeLabel;resizable=0;html=1;align=center;verticalAlign=middle;rounded=0;shadow=0;glass=0;sketch=0;fontSize=14;" connectable="0" vertex="1" parent="1">
                    <mxGeometry x="659.9999996356056" y="928" as="geometry"/>
                </mxCell>
                <mxCell id="232" value="&lt;b&gt;ASYNC&lt;/b&gt;&lt;br&gt;Can be called in&lt;br&gt;parallel" style="rounded=0;whiteSpace=wrap;html=1;shadow=0;glass=0;sketch=0;" vertex="1" parent="1">
                    <mxGeometry x="150" y="290" width="110" height="80" as="geometry"/>
                </mxCell>
                <mxCell id="270" value="" style="edgeStyle=none;html=1;" edge="1" parent="1" source="235" target="259">
                    <mxGeometry relative="1" as="geometry"/>
                </mxCell>
                <mxCell id="235" value="Match&lt;br&gt;Multiple Titles" style="rhombus;whiteSpace=wrap;html=1;" vertex="1" parent="1">
                    <mxGeometry x="610" y="435" width="100" height="100" as="geometry"/>
                </mxCell>
                <mxCell id="246" value="&lt;b&gt;Fallback Search&lt;br&gt;&lt;/b&gt;Original track name&lt;br&gt;Artist name" style="rounded=1;whiteSpace=wrap;html=1;" vertex="1" parent="1">
                    <mxGeometry x="460" y="210" width="120" height="60" as="geometry"/>
                </mxCell>
                <mxCell id="247" value="&lt;b&gt;Fallback Search&lt;br&gt;&lt;/b&gt;Cleaned track name" style="rounded=1;whiteSpace=wrap;html=1;" vertex="1" parent="1">
                    <mxGeometry x="600" y="210" width="120" height="60" as="geometry"/>
                </mxCell>
                <mxCell id="248" value="&lt;b&gt;Fallback Search&lt;br&gt;&lt;/b&gt;Original track name" style="rounded=1;whiteSpace=wrap;html=1;" vertex="1" parent="1">
                    <mxGeometry x="740" y="210" width="120" height="60" as="geometry"/>
                </mxCell>
                <mxCell id="249" value="" style="edgeStyle=none;html=1;" edge="1" parent="1" target="250">
                    <mxGeometry relative="1" as="geometry">
                        <mxPoint x="520" y="270" as="sourcePoint"/>
                    </mxGeometry>
                </mxCell>
                <mxCell id="250" value="&lt;b&gt;API Call&lt;/b&gt;&lt;br&gt;Song search&lt;br&gt;return song list" style="rounded=1;whiteSpace=wrap;html=1;fillColor=#dae8fc;strokeColor=#6c8ebf;" vertex="1" parent="1">
                    <mxGeometry x="460" y="300" width="120" height="60" as="geometry"/>
                </mxCell>
                <mxCell id="251" value="" style="edgeStyle=none;html=1;" edge="1" parent="1" target="252">
                    <mxGeometry relative="1" as="geometry">
                        <mxPoint x="660" y="270" as="sourcePoint"/>
                    </mxGeometry>
                </mxCell>
                <mxCell id="252" value="&lt;b&gt;API Call&lt;/b&gt;&lt;br&gt;Song search&lt;br&gt;return song list" style="rounded=1;whiteSpace=wrap;html=1;fillColor=#dae8fc;strokeColor=#6c8ebf;" vertex="1" parent="1">
                    <mxGeometry x="600" y="300" width="120" height="60" as="geometry"/>
                </mxCell>
                <mxCell id="253" value="" style="edgeStyle=none;html=1;" edge="1" parent="1" target="254">
                    <mxGeometry relative="1" as="geometry">
                        <mxPoint x="800" y="270" as="sourcePoint"/>
                    </mxGeometry>
                </mxCell>
                <mxCell id="254" value="&lt;b&gt;API Call&lt;/b&gt;&lt;br&gt;Song search&lt;br&gt;return song list" style="rounded=1;whiteSpace=wrap;html=1;fillColor=#dae8fc;strokeColor=#6c8ebf;" vertex="1" parent="1">
                    <mxGeometry x="740" y="300" width="120" height="60" as="geometry"/>
                </mxCell>
                <mxCell id="256" value="" style="endArrow=none;html=1;entryX=0.5;entryY=1;entryDx=0;entryDy=0;exitX=0.5;exitY=0;exitDx=0;exitDy=0;" edge="1" parent="1" source="9" target="254">
                    <mxGeometry width="50" height="50" relative="1" as="geometry">
                        <mxPoint x="800" y="460" as="sourcePoint"/>
                        <mxPoint x="850" y="410" as="targetPoint"/>
                        <Array as="points">
                            <mxPoint x="380" y="400"/>
                            <mxPoint x="800" y="400"/>
                        </Array>
                    </mxGeometry>
                </mxCell>
                <mxCell id="257" value="" style="endArrow=none;html=1;entryX=0.5;entryY=1;entryDx=0;entryDy=0;exitX=0.5;exitY=0;exitDx=0;exitDy=0;" edge="1" parent="1" target="252">
                    <mxGeometry width="50" height="50" relative="1" as="geometry">
                        <mxPoint x="380" y="435" as="sourcePoint"/>
                        <mxPoint x="800" y="360" as="targetPoint"/>
                        <Array as="points">
                            <mxPoint x="380" y="400"/>
                            <mxPoint x="660" y="400"/>
                        </Array>
                    </mxGeometry>
                </mxCell>
                <mxCell id="258" value="" style="endArrow=none;html=1;entryX=0.5;entryY=1;entryDx=0;entryDy=0;exitX=0.5;exitY=0;exitDx=0;exitDy=0;" edge="1" parent="1" target="250">
                    <mxGeometry width="50" height="50" relative="1" as="geometry">
                        <mxPoint x="380" y="435" as="sourcePoint"/>
                        <mxPoint x="800" y="360" as="targetPoint"/>
                        <Array as="points">
                            <mxPoint x="380" y="400"/>
                            <mxPoint x="520" y="400"/>
                        </Array>
                    </mxGeometry>
                </mxCell>
                <mxCell id="274" value="" style="edgeStyle=none;html=1;" edge="1" parent="1" source="259" target="273">
                    <mxGeometry relative="1" as="geometry"/>
                </mxCell>
                <mxCell id="282" value="" style="edgeStyle=none;html=1;" edge="1" parent="1" source="259" target="92">
                    <mxGeometry relative="1" as="geometry"/>
                </mxCell>
                <mxCell id="259" value="Tier 2 search&lt;br&gt;enabled" style="rhombus;whiteSpace=wrap;html=1;" vertex="1" parent="1">
                    <mxGeometry x="610" y="590" width="100" height="100" as="geometry"/>
                </mxCell>
                <mxCell id="265" value="Hit" style="edgeLabel;resizable=0;html=1;align=center;verticalAlign=middle;rounded=0;shadow=0;glass=0;sketch=0;fontSize=14;" connectable="0" vertex="1" parent="1">
                    <mxGeometry x="379.99857142857127" y="550" as="geometry">
                        <mxPoint x="1" y="-7" as="offset"/>
                    </mxGeometry>
                </mxCell>
                <mxCell id="268" value="" style="endArrow=none;html=1;entryX=0.5;entryY=1;entryDx=0;entryDy=0;" edge="1" parent="1" target="26">
                    <mxGeometry width="50" height="50" relative="1" as="geometry">
                        <mxPoint x="380" y="590" as="sourcePoint"/>
                        <mxPoint x="540" y="580" as="targetPoint"/>
                        <Array as="points">
                            <mxPoint x="380" y="570"/>
                            <mxPoint x="520" y="570"/>
                        </Array>
                    </mxGeometry>
                </mxCell>
                <mxCell id="272" value="Yes" style="edgeLabel;resizable=0;html=1;align=center;verticalAlign=middle;rounded=0;shadow=0;glass=0;sketch=0;fontSize=14;" connectable="0" vertex="1" parent="1">
                    <mxGeometry x="659.9985714285713" y="710" as="geometry">
                        <mxPoint x="1" y="-7" as="offset"/>
                    </mxGeometry>
                </mxCell>
                <mxCell id="284" style="edgeStyle=none;html=1;exitX=0.5;exitY=0;exitDx=0;exitDy=0;entryX=0.5;entryY=0;entryDx=0;entryDy=0;" edge="1" parent="1" source="273" target="246">
                    <mxGeometry relative="1" as="geometry">
                        <Array as="points">
                            <mxPoint x="920" y="160"/>
                            <mxPoint x="520" y="160"/>
                        </Array>
                    </mxGeometry>
                </mxCell>
                <mxCell id="292" style="edgeStyle=none;html=1;exitX=0.5;exitY=1;exitDx=0;exitDy=0;entryX=1;entryY=0.5;entryDx=0;entryDy=0;" edge="1" parent="1" source="273" target="33">
                    <mxGeometry relative="1" as="geometry">
                        <Array as="points">
                            <mxPoint x="920" y="1060"/>
                        </Array>
                    </mxGeometry>
                </mxCell>
                <mxCell id="273" value="Reached max&lt;br&gt;fallback level" style="rhombus;whiteSpace=wrap;html=1;" vertex="1" parent="1">
                    <mxGeometry x="870" y="590" width="100" height="100" as="geometry"/>
                </mxCell>
                <mxCell id="275" value="No" style="edgeLabel;resizable=0;html=1;align=center;verticalAlign=middle;rounded=0;shadow=0;glass=0;sketch=0;fontSize=14;" connectable="0" vertex="1" parent="1">
                    <mxGeometry x="724.9966666666668" y="640" as="geometry"/>
                </mxCell>
                <mxCell id="276" value="" style="endArrow=none;html=1;exitX=1;exitY=0.5;exitDx=0;exitDy=0;" edge="1" parent="1" source="235">
                    <mxGeometry width="50" height="50" relative="1" as="geometry">
                        <mxPoint x="770" y="580" as="sourcePoint"/>
                        <mxPoint x="780" y="640" as="targetPoint"/>
                        <Array as="points">
                            <mxPoint x="760" y="485"/>
                            <mxPoint x="760" y="640"/>
                        </Array>
                    </mxGeometry>
                </mxCell>
                <mxCell id="277" value="Miss" style="edgeLabel;resizable=0;html=1;align=center;verticalAlign=middle;rounded=0;shadow=0;glass=0;sketch=0;fontSize=14;" connectable="0" vertex="1" parent="1">
                    <mxGeometry x="724.9966666666668" y="485" as="geometry"/>
                </mxCell>
                <mxCell id="278" value="" style="endArrow=none;html=1;exitX=1;exitY=0.5;exitDx=0;exitDy=0;" edge="1" parent="1" source="47">
                    <mxGeometry width="50" height="50" relative="1" as="geometry">
                        <mxPoint x="770" y="820" as="sourcePoint"/>
                        <mxPoint x="780" y="640" as="targetPoint"/>
                        <Array as="points">
                            <mxPoint x="760" y="863"/>
                            <mxPoint x="760" y="640"/>
                        </Array>
                    </mxGeometry>
                </mxCell>
                <mxCell id="279" value="Miss" style="edgeLabel;resizable=0;html=1;align=center;verticalAlign=middle;rounded=0;shadow=0;glass=0;sketch=0;fontSize=14;" connectable="0" vertex="1" parent="1">
                    <mxGeometry x="724.9966666666668" y="863" as="geometry"/>
                </mxCell>
                <mxCell id="280" value="Hit" style="edgeLabel;resizable=0;html=1;align=center;verticalAlign=middle;rounded=0;shadow=0;glass=0;sketch=0;fontSize=14;" connectable="0" vertex="1" parent="1">
                    <mxGeometry x="659.9985714285713" y="550" as="geometry">
                        <mxPoint x="1" y="-7" as="offset"/>
                    </mxGeometry>
                </mxCell>
                <mxCell id="281" value="Hit" style="edgeLabel;resizable=0;html=1;align=center;verticalAlign=middle;rounded=0;shadow=0;glass=0;sketch=0;fontSize=14;" connectable="0" vertex="1" parent="1">
                    <mxGeometry x="519.9985714285713" y="550" as="geometry">
                        <mxPoint x="1" y="-7" as="offset"/>
                    </mxGeometry>
                </mxCell>
                <mxCell id="285" value="" style="endArrow=classic;html=1;entryX=0.5;entryY=0;entryDx=0;entryDy=0;" edge="1" parent="1" target="247">
                    <mxGeometry width="50" height="50" relative="1" as="geometry">
                        <mxPoint x="680" y="160" as="sourcePoint"/>
                        <mxPoint x="700" y="160" as="targetPoint"/>
                        <Array as="points">
                            <mxPoint x="660" y="160"/>
                        </Array>
                    </mxGeometry>
                </mxCell>
                <mxCell id="286" value="" style="endArrow=classic;html=1;entryX=0.5;entryY=0;entryDx=0;entryDy=0;" edge="1" parent="1">
                    <mxGeometry width="50" height="50" relative="1" as="geometry">
                        <mxPoint x="820" y="160" as="sourcePoint"/>
                        <mxPoint x="800" y="210" as="targetPoint"/>
                        <Array as="points">
                            <mxPoint x="800" y="160"/>
                        </Array>
                    </mxGeometry>
                </mxCell>
                <mxCell id="287" value="No" style="edgeLabel;resizable=0;html=1;align=center;verticalAlign=middle;rounded=0;shadow=0;glass=0;sketch=0;fontSize=14;" connectable="0" vertex="1" parent="1">
                    <mxGeometry x="919.9966666666668" y="580" as="geometry"/>
                </mxCell>
                <mxCell id="291" value="Yes" style="edgeLabel;resizable=0;html=1;align=center;verticalAlign=middle;rounded=0;shadow=0;glass=0;sketch=0;fontSize=14;" connectable="0" vertex="1" parent="1">
                    <mxGeometry x="919.9985714285713" y="710" as="geometry">
                        <mxPoint x="1" y="-7" as="offset"/>
                    </mxGeometry>
                </mxCell>
            </root>
        </mxGraphModel>
    </diagram>
</mxfile>